<svg xmlns="http://www.w3.org/2000/svg" version="1.1" xmlns:xlink="http://www.w3.org/1999/xlink" xmlns:svgjs="http://svgjs.dev/svgjs" viewBox="0 0 800 800"><defs><linearGradient x1="50%" y1="0%" x2="50%" y2="100%" id="ccchaos-grad"><stop stop-color="hsl(206, 75%, 49%)" stop-opacity="1" offset="0%"></stop><stop stop-color="hsl(331, 90%, 56%)" stop-opacity="1" offset="100%"></stop></linearGradient></defs><g stroke-width="1.5" stroke="url(#ccchaos-grad)" fill="none" stroke-linecap="round"><path d="M375.66 67.77C386.74 64.37 397.75 60.97 408.67 58.03 419.63 55.36 430.58 54 441.56 54.21 452.68 55.64 463.96 58.89 475.47 63.84 487.28 69.86 499.49 77.13 512.16 85.27 525.25 93.55 538.91 102.02 553.12 110.36 567.7 117.96 582.73 125.05 598.02 131.56 613.26 137.04 628.32 142.03 642.79 146.67 656.39 150.61 668.69 154.57 679.2 158.76 687.9 162.82 694.21 167.46 697.83 172.82 699.35 178.5 698.32 185.06 694.99 192.5 690.66 200.44 685.25 209.24 679.6 218.8 675.33 228.81 672.6 239.45 672.25 250.57 675.41 262.01 681.88 273.8 691.66 285.79 704.65 297.97 719.76 310.25 735.83 322.52 751.81 334.88 765.96 347.16 776.8 359.29 783.67 371.45 785.32 383.41 781.42 395.09 773 406.78 760.53 417.88 745.52 428.37 729.88 438.85 714.8 448.71 701.64 457.95 691.77 467.19 685.45 475.86 682.8 484 684.09 492.25 688.16 500.12 694.08 507.74 701.57 515.7 708.83 523.67 714.84 531.84 719.57 540.73 721.59 550.16 720.57 560.32 716.96 571.51 710.21 583.63 700.7 596.73 689.09 610.77 675.56 625.58 660.73 640.87 645.12 656.31 629.15 671.46 613.3 685.72 597.78 698.7 582.9 709.73 568.82 718.2 555.56 724.17 543.15 727.05 531.51 726.75 520.65 724.22 510.34 719.31 500.43 712.74 491.01 706.21 481.72 699.99 472.42 695.16 463.33 693.27 454.03 694.36 444.43 698.83 434.89 707.03 424.94 718.03 414.57 730.86 404.18 744.67 393.35 757.62 382.09 768.15 370.82 775.45 359.42 778.04 347.97 775.72 336.56 769.3 325.16 758.95 313.86 745.82 302.68 731.5 291.67 716.94 280.95 703.37 270.42 692.03 260.26 683.29 250.56 677.41 241.11 674.82 232.18 674.72 223.83 676.46 215.72 680 208.17 683.86 201.21 687.23 194.34 690.17 187.94 691.35 181.95 690.4 175.81 687.7 169.89 682.56 164.11 675.13 157.91 665.96 151.68 654.95 145.36 642.52 138.5 629.1 131.52 614.92 124.49 600.35 117.04 585.58 109.7 570.89 102.61 556.48 95.48 542.32 88.88 528.6 82.96 515.35 77.41 502.46 72.75 489.98 69.05 477.88 65.87 466.04 63.64 454.43 62.34 442.99 61.34 431.68 61.06 420.42 61.4 409.16 61.63 397.95 62.2 386.67 63.05 375.33 63.44 364 63.97 352.87 64.62 341.99 64.83 331.13 65.31 320.56 66.12 310.35 66.82 300.21 68.13 290.5 70.14 281.28 72.46 272.18 75.7 263.63 79.89 255.66 84.61 247.8 90.29 240.5 96.84 233.77 103.79 227.02 111.42 220.7 119.57 214.72 127.74 208.46 136.17 202.3 144.71 196.13 152.89 189.33 161.02 182.26 169.05 174.82 176.54 166.55 183.93 157.84 191.26 148.7 198.12 138.92 205.03 128.96 212.08 119.04 218.86 109.12 225.92 99.76 233.32 91.28 240.64 83.6 248.41 77.3 256.62 72.58 264.88 69.03 273.62 67.09 282.81 66.66 292.07 66.92 301.75 68.09 311.8 69.83 321.89 71.1 332.31 72.13 342.98 72.63 353.66 71.79 364.56 70.13 375.65 67.77" stroke-dasharray="8 6" transform="rotate(0, 400, 400)" opacity="1.00"></path><path d="M377.72 79.07C388.5 75.67 399.33 72.28 410.22 69.29 421.15 66.53 432.19 64.99 443.39 64.92 454.73 66 466.32 68.84 478.22 73.35 490.37 78.94 502.94 85.83 515.94 93.68 529.25 101.81 543.01 110.27 557.16 118.73 571.47 126.6 585.98 134.07 600.46 141.03 614.63 147.02 628.31 152.5 641.12 157.55 652.87 161.84 663.14 166 671.5 170.22 680.29 176.31 683.51 191.23 678.75 200.63 674.49 207.55 669.64 215.27 664.99 223.73 662 232.6 660.74 242.12 661.89 252.18 666.36 262.56 673.87 273.35 684.29 284.43 697.47 295.7 712.33 307.16 727.78 318.68 742.89 330.3 756.08 341.91 766.04 353.42 772.27 364.97 773.63 376.37 769.84 387.55 761.86 398.73 750.1 409.4 735.87 419.54 720.94 429.67 706.31 439.29 693.26 448.41 683.07 457.57 676.03 466.3 672.34 474.68 672.34 483.22 675.08 491.57 679.81 499.85 686.34 508.53 693.05 517.4 699.02 526.62 704.2 536.53 707.2 547.04 707.6 558.29 705.79 570.39 701.07 583.3 693.67 596.96 684.19 611.24 672.63 625.95 659.5 640.76 645.32 655.34 630.41 669.25 615.24 681.94 600.06 693.14 585.18 702.23 570.83 708.76 557.03 712.95 543.92 714.28 531.51 712.81 519.75 709.56 508.57 704.4 497.87 698.07 487.64 692.15 477.68 686.85 467.86 683.09 458.3 682.24 448.68 684.24 438.94 689.34 429.29 697.82 419.4 708.74 409.22 721.22 399.06 734.47 388.58 746.81 377.8 756.85 367.01 763.9 356.19 766.57 345.41 764.68 334.66 758.95 324 749.45 313.51 737.19 303.12 723.6 292.96 709.5 283.13 696.03 273.46 684.37 264.18 674.9 255.37 667.98 246.74 664.09 238.62 662.62 231.04 663.09 223.59 665.53 216.65 668.64 210.2 671.7 203.74 674.78 197.64 676.59 191.85 676.69 185.8 675.45 179.89 672.03 174.03 666.49 167.71 659.33 161.3 650.28 154.79 639.68 147.73 627.97 140.59 615.24 133.4 601.85 125.88 588.03 118.5 574.01 111.41 560.03 104.37 546.08 97.89 532.4 92.13 519.06 86.78 505.96 82.34 493.22 78.87 480.85 75.94 468.7 73.96 456.83 72.9 445.21 72.14 433.72 72.07 422.38 72.6 411.18 73 400.02 73.71 388.93 74.64 377.91 75.08 366.9 75.6 356.21 76.19 345.87 76.31 335.54 76.64 325.59 77.27 316.06 77.76 306.57 78.81 297.54 80.53 289.02 82.55 280.55 85.47 272.6 89.32 265.19 93.7 257.79 99.05 250.86 105.3 244.38 112 237.76 119.41 231.44 127.41 225.31 135.51 218.8 143.93 212.26 152.52 205.6 160.85 198.27 169.18 190.63 177.42 182.61 185.19 173.84 192.84 164.68 200.39 155.21 207.47 145.27 214.53 135.31 221.65 125.55 228.44 115.95 235.41 107.06 242.63 99.17 249.7 92.15 257.12 86.52 264.92 82.45 272.7 79.5 280.9 78.05 289.53 77.98 298.19 78.48 307.26 79.77 316.73 81.52 326.22 82.74 336.07 83.68 346.25 84.07 356.43 83.15 366.93 81.45 377.71 79.07" stroke-dasharray="9 3" transform="rotate(2.9, 400, 400)" opacity="0.97"></path><path d="M381.96 90.36C392.49 86.99 403.18 83.6 414.03 80.58 424.91 77.74 436.01 76.03 447.34 75.7 458.8 76.44 470.56 78.87 482.65 82.92 494.94 88.07 507.61 94.54 520.63 102.04 533.83 109.94 547.35 118.3 561.05 126.8 574.71 134.87 588.33 142.65 601.65 150.01 614.47 156.5 626.54 162.48 637.51 168.01 647.35 172.73 655.59 177.22 661.93 181.63 668 187.71 667.68 201.53 662.54 209.91 658.63 215.96 654.57 222.73 651.07 230.2 649.42 238 649.61 246.46 652.17 255.48 657.82 264.78 666.2 274.55 677.12 284.67 690.35 294.99 704.85 305.56 719.63 316.28 733.85 327.1 746.1 337.99 755.23 348.86 760.85 359.76 761.93 370.6 758.25 381.3 750.71 392 739.63 402.3 726.18 412.18 711.95 422.07 697.82 431.57 684.94 440.71 674.53 449.92 666.88 458.86 662.25 467.61 661.05 476.56 662.51 485.49 666.01 494.5 671.48 503.93 677.47 513.67 683.15 523.83 688.5 534.62 692.17 546.01 693.69 558.05 693.39 570.75 690.48 584.06 685.06 597.87 677.66 611.97 668.11 626.18 656.83 640.13 644.33 653.53 630.8 665.95 616.69 676.91 602.25 686.28 587.8 693.48 573.58 698.18 559.66 700.77 546.22 700.8 533.36 698.41 520.98 694.68 509.15 689.5 497.81 683.58 486.89 678.38 476.32 674.04 466.01 671.36 455.96 671.5 446 674.32 436.06 679.97 426.23 688.66 416.31 699.47 406.27 711.56 396.25 724.24 386.05 735.99 375.68 745.55 365.31 752.35 355.02 755.09 344.86 753.58 334.72 748.51 324.76 739.84 315.02 728.45 305.36 715.63 295.99 702.07 286.98 688.81 278.09 676.96 269.6 666.92 261.57 659.1 253.65 654.03 246.2 651.25 239.24 650.43 232.32 651.67 225.83 653.86 219.73 656.36 213.52 659.26 207.58 661.34 201.84 662.15 195.78 662.01 189.77 660.02 183.75 656.14 177.23 650.83 170.61 643.69 163.86 634.94 156.62 625.05 149.31 613.97 142 602.01 134.42 589.45 127.05 576.44 120.02 563.24 113.1 549.89 106.79 536.6 101.23 523.51 96.13 510.51 91.94 497.79 88.74 485.4 86.07 473.15 84.34 461.19 83.53 449.52 83 437.96 83.14 426.62 83.84 415.5 84.39 404.42 85.22 393.51 86.22 382.79 86.71 372.06 87.24 361.75 87.78 351.87 87.83 341.98 88.04 332.53 88.49 323.54 88.79 314.56 89.6 306.05 91.05 298.03 92.76 290.01 95.34 282.46 98.83 275.38 102.85 268.21 107.84 261.43 113.73 254.97 120.11 248.28 127.26 241.76 135.03 235.31 142.99 228.41 151.33 221.39 159.93 214.17 168.35 206.3 176.82 198.1 185.26 189.55 193.29 180.36 201.21 170.88 209.03 161.21 216.38 151.25 223.68 141.42 230.98 131.95 237.9 122.81 244.93 114.48 252.13 107.24 259.1 100.91 266.35 95.97 273.91 92.55 281.37 90.16 289.22 89.17 297.45 89.43 305.65 90.13 314.27 91.51 323.29 93.24 332.29 94.39 341.7 95.23 351.48 95.5 361.26 94.51 371.42 92.76 381.95 90.37" stroke-dasharray="11 3" transform="rotate(5.8, 400, 400)" opacity="0.94"></path><path d="M387.97 101.66C398.29 98.31 408.84 94.94 419.61 91.91 430.42 89 441.49 87.13 452.83 86.56 464.27 86.97 476.02 88.99 488.08 92.58 500.26 97.25 512.75 103.27 525.48 110.38 538.26 117.98 551.18 126.15 564.09 134.6 576.8 142.77 589.23 150.79 601.13 158.48 612.4 165.42 622.73 171.89 631.82 177.91 639.77 183.14 646.11 188.05 650.63 192.77 654.4 199.11 651.6 212.45 646.58 220.11 643.28 225.49 640.19 231.51 637.94 238.14 637.64 245.01 639.22 252.51 643.07 260.56 649.75 268.85 658.85 277.64 670.1 286.83 683.24 296.19 697.31 305.87 711.37 315.78 724.7 325.78 736.03 335.94 744.36 346.17 749.4 356.43 750.24 366.73 746.66 376.99 739.55 387.26 729.13 397.24 716.44 406.94 702.91 416.66 689.31 426.13 676.67 435.39 666.14 444.73 657.99 453.96 652.54 463.14 650.24 472.55 650.47 482.06 652.74 491.78 657.08 501.88 662.21 512.36 667.39 523.28 672.65 534.71 676.68 546.68 679.01 559.17 679.92 572.1 678.56 585.42 674.9 598.97 669.45 612.51 661.89 625.85 652.52 638.62 641.84 650.6 629.92 661.38 617.14 670.53 603.81 678.08 590.16 683.48 576.48 686.54 562.84 687.75 549.46 686.72 536.48 683.69 523.82 679.72 511.61 674.72 499.86 669.35 488.46 664.96 477.42 661.6 466.71 659.96 456.24 661.03 445.96 664.59 435.83 670.72 425.81 679.54 415.84 690.19 405.87 701.87 395.94 714 385.96 725.16 375.94 734.26 365.93 740.8 356.1 743.59 346.49 742.45 336.89 737.99 327.54 730.12 318.48 719.6 309.47 707.57 300.79 694.61 292.49 681.66 284.25 669.77 276.42 659.32 269.03 650.75 261.68 644.63 254.75 640.63 248.23 638.54 241.68 638.53 235.47 639.67 229.56 641.4 223.46 643.85 217.54 645.89 211.73 647.06 205.55 647.66 199.36 646.77 193.11 644.25 186.36 640.56 179.5 635.16 172.53 628.19 165.11 620.13 157.67 610.77 150.27 600.39 142.69 589.32 135.36 577.59 128.44 565.45 121.7 553.02 115.61 540.46 110.3 527.92 105.47 515.36 101.57 502.95 98.65 490.77 96.27 478.67 94.81 466.82 94.23 455.26 93.92 443.77 94.26 432.53 95.12 421.56 95.81 410.62 96.74 399.91 97.81 389.44 98.35 378.98 98.88 368.99 99.39 359.47 99.38 349.94 99.48 340.87 99.79 332.27 99.91 323.65 100.51 315.49 101.68 307.79 103.1 300.02 105.34 292.67 108.45 285.69 112.09 278.57 116.68 271.72 122.17 265.09 128.18 258.16 134.99 251.29 142.47 244.4 150.21 237.03 158.41 229.48 166.93 221.7 175.37 213.31 183.92 204.62 192.51 195.64 200.76 186.16 208.94 176.49 217.02 166.79 224.68 156.96 232.27 147.4 239.8 138.36 246.96 129.76 254.16 122.08 261.46 115.54 268.49 109.93 275.72 105.68 283.2 102.89 290.52 101.03 298.16 100.46 306.16 101 314.07 101.87 322.37 103.3 331.07 104.98 339.73 106.05 348.8 106.77 358.29 106.93 367.75 105.86 377.64 104.07 387.96 101.66" stroke-dasharray="5 7" transform="rotate(8.700000000000001, 400, 400)" opacity="0.91"></path><path d="M395.16 112.96C405.29 109.64 415.68 106.3 426.3 103.26 436.97 100.3 447.91 98.3 459.11 97.49 470.38 97.59 481.92 99.21 493.7 102.34 505.54 106.53 517.57 112.06 529.71 118.71 541.79 125.95 553.83 133.86 565.67 142.16 577.19 150.34 588.23 158.5 598.56 166.45 608.18 173.77 616.74 180.69 624.01 187.2 632.52 195.64 639.76 210.28 638.66 217.12 635.53 223.71 627.58 238.65 625.63 247.37 626.66 253.49 629.55 260.18 634.56 267.41 642.11 274.8 651.76 282.7 663.2 291.04 676.14 299.5 689.7 308.34 702.99 317.49 715.43 326.7 725.87 336.15 733.42 345.77 737.93 355.42 738.53 365.2 735.08 375.06 728.38 384.93 718.59 394.66 706.65 404.23 693.83 413.82 680.78 423.31 668.44 432.73 657.87 442.24 649.34 451.77 643.18 461.37 639.89 471.19 638.95 481.21 640.03 491.5 643.2 502.12 647.36 513.12 651.88 524.54 656.8 536.33 660.91 548.55 663.74 561.11 665.56 573.9 665.45 586.84 663.31 599.74 659.62 612.39 653.92 624.56 646.43 635.92 637.62 646.33 627.43 655.38 616.19 662.74 604.24 668.54 591.71 672.31 578.9 673.93 565.92 674.01 552.97 672.19 540.23 668.75 527.64 664.77 515.37 660.13 503.47 655.43 491.82 651.9 480.52 649.55 469.57 648.9 458.81 650.83 448.31 655.05 438.04 661.57 427.87 670.47 417.85 680.91 407.95 692.17 398.09 703.73 388.29 714.33 378.57 722.96 368.84 729.25 359.4 732.08 350.26 731.26 341.12 727.39 332.29 720.3 323.8 710.62 315.33 699.41 307.21 687.1 299.48 674.56 291.77 662.75 284.45 652.04 277.53 642.89 270.58 635.86 264 630.76 257.77 627.46 251.42 626.2 245.34 626.2 239.47 627.01 233.34 628.78 227.32 630.48 221.34 631.69 214.97 632.68 208.53 632.54 202.01 631.06 195.02 628.69 187.92 624.8 180.74 619.45 173.19 613.1 165.64 605.45 158.22 596.71 150.68 587.22 143.47 576.94 136.71 566.07 130.2 554.82 124.38 543.25 119.36 531.53 114.85 519.69 111.26 507.86 108.65 496.15 106.56 484.44 105.36 472.92 105.02 461.63 104.92 450.37 105.43 439.36 106.43 428.61 107.25 417.88 108.27 407.4 109.4 397.2 109.98 386.99 110.52 377.27 111 368.03 110.95 358.77 110.98 349.97 111.17 341.62 111.13 333.23 111.53 325.25 112.45 317.68 113.58 310 115.48 302.66 118.22 295.61 121.45 288.36 125.61 281.3 130.67 274.35 136.26 267.07 142.68 259.76 149.8 252.37 157.25 244.5 165.21 236.44 173.57 228.13 181.94 219.31 190.5 210.24 199.15 200.96 207.57 191.32 215.96 181.64 224.28 172.05 232.24 162.49 240.11 153.36 247.93 144.85 255.37 136.9 262.82 129.92 270.31 124.12 277.51 119.23 284.85 115.67 292.37 113.47 299.7 112.11 307.29 111.91 315.18 112.68 322.95 113.68 331.08 115.12 339.58 116.74 348.01 117.7 356.86 118.3 366.11 118.34 375.34 117.2 385.02 115.37 395.15 112.96" stroke-dasharray="3 6" transform="rotate(11.6, 400, 400)" opacity="0.87"></path><path d="M402.82 124.25C412.76 120.98 422.94 117.67 433.35 114.63 443.79 111.64 454.48 109.52 465.38 108.51 476.31 108.31 487.45 109.54 498.74 112.21 510 115.9 521.35 120.92 532.65 127.09 543.8 133.9 554.74 141.47 565.31 149.54 575.48 157.63 585.03 165.82 593.73 173.93 601.72 181.54 608.6 188.85 614.18 195.8 620.42 205 624.41 220.98 622.66 228.24 619.75 235 614.26 249.45 614.2 257.56 616.5 263.15 620.57 269.23 626.6 275.8 634.85 282.46 644.89 289.61 656.37 297.21 669.01 304.9 681.98 313 694.49 321.45 706.04 329.94 715.61 338.75 722.44 347.82 726.43 356.9 726.83 366.21 723.49 375.73 717.19 385.24 708.02 394.73 696.8 404.2 684.69 413.7 672.21 423.21 660.23 432.77 649.7 442.42 640.89 452.19 634.16 462.13 629.98 472.25 627.98 482.63 627.91 493.29 629.91 504.21 633.03 515.48 636.74 527.08 641.13 538.91 645.07 551.02 648.11 563.29 650.51 575.57 651.34 587.79 650.45 599.72 648.27 611.21 644.25 622 638.51 631.79 631.53 640.55 623.11 647.88 613.52 653.52 603.12 657.73 591.95 660.06 580.28 660.49 568.28 659.7 556.09 657.35 543.91 653.75 531.73 649.95 519.72 645.81 507.96 641.88 496.35 639.26 485.02 637.88 474.02 638.19 463.16 640.89 452.57 645.69 442.25 652.51 432.02 661.42 422 671.62 412.18 682.44 402.4 693.44 392.76 703.48 383.29 711.66 373.81 717.7 364.69 720.55 355.93 720.04 347.16 716.72 338.75 710.36 330.71 701.52 322.65 691.12 314.96 679.52 307.66 667.47 300.32 655.86 293.34 645.04 286.73 635.47 280.03 627.7 273.64 621.62 267.52 617.21 261.23 614.74 255.13 613.57 249.17 613.35 242.91 614.26 236.7 615.39 230.47 616.35 223.85 617.4 217.15 617.65 210.35 616.88 203.13 615.5 195.82 612.83 188.47 608.86 180.82 604.04 173.25 597.98 165.85 590.8 158.44 582.92 151.39 574.14 144.86 564.66 138.64 554.74 133.13 544.35 128.44 533.66 124.27 522.77 121.02 511.74 118.73 500.71 116.93 489.62 116.01 478.62 115.89 467.76 115.99 456.92 116.66 446.25 117.79 435.81 118.71 425.39 119.81 415.19 120.98 405.24 121.6 395.29 122.16 385.8 122.63 376.78 122.56 367.72 122.52 359.09 122.61 350.87 122.45 342.59 122.66 334.66 123.35 327.07 124.2 319.35 125.78 311.88 128.14 304.62 130.96 297.13 134.68 289.74 139.28 282.39 144.41 274.7 150.37 266.93 157.07 259.03 164.15 250.71 171.8 242.19 179.9 233.46 188.11 224.32 196.59 215.01 205.22 205.6 213.71 195.98 222.23 186.43 230.73 177.12 238.93 167.99 247.08 159.4 255.16 151.53 262.91 144.29 270.64 138.07 278.37 133.02 285.82 128.85 293.35 125.95 301 124.31 308.45 123.4 316.1 123.51 323.99 124.48 331.76 125.55 339.82 126.99 348.21 128.51 356.53 129.36 365.23 129.82 374.32 129.74 383.38 128.53 392.87 126.67 402.81 124.25" stroke-dasharray="9 4" transform="rotate(14.5, 400, 400)" opacity="0.84"></path><path d="M410.2 135.55C419.93 132.32 429.86 129.06 439.96 126.04 450.09 123.03 460.4 120.81 470.84 119.6 481.29 119.13 491.85 119.99 502.44 122.21 512.96 125.4 523.42 129.89 533.7 135.54 543.76 141.87 553.47 149.03 562.68 156.78 571.44 164.68 579.48 172.8 586.61 180.95 593.06 188.76 598.41 196.36 602.54 203.68 605.88 210.4 607.96 216.78 608.79 222.87 608.67 231.01 604.48 245.99 602.13 253.33 601.66 258.05 602.05 263.04 603.66 268.36 607.13 273.62 612.26 279.3 619.13 285.4 627.92 291.53 638.19 298.1 649.58 305.12 661.83 312.17 674.16 319.65 685.86 327.51 696.53 335.4 705.26 343.65 711.39 352.23 714.91 360.81 715.12 369.71 711.9 378.9 705.99 388.1 697.42 397.38 686.9 406.74 675.49 416.12 663.62 425.63 652.03 435.26 641.63 444.98 632.65 454.89 625.44 465.01 620.5 475.27 617.53 485.8 616.38 496.6 617.23 507.56 619.28 518.8 622.09 530.26 625.77 541.8 629.33 553.46 632.32 565.1 635 576.57 636.47 587.78 636.52 598.49 635.57 608.62 632.99 617.9 628.82 626.06 623.54 633.18 616.84 638.87 608.91 642.93 600.14 645.74 590.47 646.88 580.13 646.38 569.35 644.97 558.19 642.34 546.85 638.81 535.38 635.36 523.92 631.85 512.59 628.75 501.29 627.05 490.19 626.61 479.34 627.8 468.59 631.21 458.08 636.49 447.84 643.54 437.67 652.41 427.73 662.32 418.03 672.68 408.37 683.13 398.9 692.62 389.64 700.37 380.39 706.15 371.53 709 363.07 708.78 354.59 705.96 346.49 700.31 338.77 692.29 331.02 682.71 323.62 671.84 316.59 660.36 309.48 649.07 302.71 638.28 296.24 628.43 289.64 620.08 283.29 613.19 277.15 607.79 270.79 604.17 264.56 601.85 258.41 600.56 251.94 600.48 245.48 600.85 238.97 601.31 232.08 602.12 225.11 602.45 218.05 602.05 210.64 601.32 203.17 599.54 195.71 596.65 188.05 593.12 180.51 588.44 173.22 582.7 165.99 576.31 159.19 569.01 152.94 560.93 147.05 552.4 141.9 543.29 137.57 533.75 133.78 523.96 130.88 513.91 128.91 503.73 127.42 493.44 126.75 483.11 126.84 472.84 127.13 462.55 127.95 452.35 129.18 442.32 130.19 432.28 131.35 422.41 132.57 412.74 133.23 403.06 133.8 393.8 134.27 384.93 134.18 376.04 134.11 367.51 134.12 359.32 133.85 351.07 133.91 343.1 134.39 335.38 134.99 327.52 136.25 319.84 138.24 312.28 140.65 304.49 143.92 296.74 148.04 288.96 152.68 280.87 158.15 272.67 164.37 264.34 171.01 255.65 178.26 246.79 186.02 237.77 193.97 228.47 202.25 219.09 210.75 209.71 219.21 200.28 227.77 191.04 236.36 182.16 244.73 173.59 253.08 165.64 261.39 158.49 269.42 152.02 277.41 146.57 285.4 142.28 293.12 138.81 300.88 136.52 308.72 135.4 316.35 134.88 324.14 135.26 332.11 136.37 339.94 137.49 348.02 138.87 356.37 140.29 364.65 141.01 373.26 141.33 382.22 141.13 391.15 139.85 400.47 137.96 410.19 135.55" stroke-dasharray="4 2" transform="rotate(17.400000000000002, 400, 400)" opacity="0.81"></path><path d="M416.59 146.84C426.06 143.68 435.67 140.47 445.39 137.47 455.11 134.45 464.93 132.15 474.79 130.78 484.63 130.05 494.47 130.56 504.22 132.35 513.86 135.04 523.31 139 532.46 144.09 541.35 149.91 549.79 156.59 557.61 163.94 565 171.55 571.61 179.49 577.3 187.58 582.4 195.46 586.46 203.25 589.4 210.84 591.75 217.94 593.04 224.76 593.31 231.31 592.91 240.18 589.95 256.38 589.01 264.1 589.63 268.98 591.21 274.03 594 279.31 598.53 284.45 604.55 289.93 612.1 295.75 621.27 301.54 631.62 307.73 642.8 314.32 654.57 320.91 666.2 327.91 677.08 335.31 686.9 342.71 694.82 350.5 700.3 358.67 703.37 366.84 703.41 375.37 700.32 384.27 694.77 393.17 686.78 402.23 676.95 411.45 666.24 420.69 654.97 430.12 643.83 439.73 633.62 449.4 624.56 459.3 617 469.42 611.42 479.63 607.6 490.08 605.45 500.74 605.2 511.48 606.18 522.39 608.03 533.39 610.89 544.35 613.87 555.26 616.58 565.98 619.28 576.41 621.09 586.39 621.78 595.72 621.75 604.39 620.33 612.11 617.51 618.66 613.73 624.23 608.61 628.41 602.27 631.1 595.13 632.74 587 632.94 578.09 631.78 568.67 630 558.73 627.32 548.45 624.05 537.94 621.1 527.28 618.3 516.61 616.08 505.89 615.28 495.25 615.75 484.77 617.74 474.33 621.76 464.09 627.44 454.07 634.65 444.09 643.41 434.34 653.01 424.83 662.9 415.34 672.8 406.06 681.75 397.02 689.07 387.97 694.6 379.33 697.45 371.1 697.47 362.85 695.13 354.97 690.15 347.46 682.91 339.9 674.15 332.67 664.05 325.77 653.19 318.78 642.32 312.07 631.68 305.61 621.73 298.99 612.97 292.56 605.41 286.29 599.16 279.78 594.52 273.34 591.1 266.94 588.73 260.23 587.61 253.48 587.09 246.69 586.86 239.56 587.19 232.35 587.3 225.08 586.96 217.53 586.53 209.98 585.31 202.49 583.21 194.88 580.65 187.47 577.09 180.36 572.56 173.39 567.51 166.89 561.55 160.99 554.8 155.49 547.63 150.72 539.8 146.79 531.46 143.39 522.84 140.85 513.86 139.21 504.62 138.01 495.25 137.59 485.73 137.89 476.15 138.34 466.52 139.29 456.9 140.61 447.34 141.7 437.77 142.91 428.29 144.16 418.92 144.85 409.54 145.44 400.5 145.91 391.77 145.83 383.02 145.73 374.55 145.68 366.34 145.33 358.07 145.26 350 145.56 342.1 145.93 334.07 146.9 326.14 148.54 318.27 150.55 310.19 153.36 302.08 156.99 293.93 161.12 285.5 166.06 276.96 171.76 268.3 177.9 259.37 184.68 250.33 192.01 241.2 199.59 231.91 207.57 222.64 215.84 213.48 224.16 204.4 232.64 195.63 241.2 187.32 249.65 179.4 258.11 172.19 266.55 165.82 274.79 160.14 283 155.47 291.2 151.92 299.17 149.12 307.16 147.4 315.19 146.72 323.03 146.54 330.98 147.14 339.05 148.34 347 149.47 355.13 150.78 363.49 152.06 371.77 152.64 380.32 152.83 389.16 152.5 397.97 151.16 407.1 149.24 416.58 146.85" stroke-dasharray="1 3" transform="rotate(20.3, 400, 400)" opacity="0.78"></path><path d="M421.35 158.14C430.53 155.03 439.76 151.89 449 148.94 458.24 145.92 467.48 143.56 476.66 142.04 485.8 141.08 494.82 141.26 503.64 142.63 512.33 144.84 520.73 148.26 528.71 152.79 536.44 158.05 543.62 164.21 550.15 171.09 556.27 178.32 561.61 185.98 566.07 193.89 570.04 201.72 573.08 209.57 575.16 217.32 576.83 224.7 577.65 231.87 577.71 238.8 577.68 245.25 577.21 251.49 576.51 257.53 576.32 265.9 579.98 281.93 585.2 289.95 590.64 295.16 597.4 300.61 605.45 306.34 614.83 311.97 625.13 317.94 635.99 324.27 647.2 330.56 658.11 337.23 668.16 344.3 677.14 351.34 684.29 358.78 689.15 366.61 691.81 374.43 691.7 382.65 688.73 391.26 683.55 399.88 676.11 408.71 666.95 417.74 656.92 426.78 646.28 436.04 635.61 445.49 625.67 454.99 616.63 464.71 608.82 474.62 602.72 484.57 598.17 494.7 595.13 504.96 593.85 515.22 593.78 525.54 594.63 535.81 596.59 545.93 598.86 555.87 601.1 565.45 603.57 574.65 605.44 583.28 606.48 591.15 606.79 601.45 600.39 615.19 593.63 618.18 588 618.9 581.38 618.42 573.92 616.86 565.92 614.96 557.3 612.44 548.21 609.58 538.83 607.24 529.16 605.23 519.35 603.9 509.41 603.98 499.44 605.28 489.53 607.99 479.6 612.53 469.79 618.52 460.13 625.82 450.5 634.42 441.04 643.68 431.79 653.1 422.55 662.44 413.51 670.87 404.68 677.77 395.85 683.06 387.41 685.88 379.36 686.13 371.28 684.23 363.55 679.88 356.16 673.4 348.71 665.44 341.56 656.12 334.69 645.94 327.71 635.57 320.97 625.21 314.41 615.29 307.7 606.29 301.11 598.24 294.63 591.3 287.92 585.75 281.24 581.34 274.56 577.94 267.6 575.76 260.6 574.27 253.55 573.23 246.22 572.88 238.84 572.53 231.44 571.98 223.83 571.55 216.28 570.57 208.85 568.92 201.39 567.01 194.18 564.28 187.33 560.71 180.69 556.74 174.56 551.94 169.07 546.36 163.98 540.42 159.65 533.8 156.13 526.61 153.13 519.17 150.96 511.26 149.63 503.01 148.72 494.61 148.54 485.96 149.02 477.14 149.63 468.26 150.68 459.28 152.07 450.25 153.22 441.22 154.47 432.16 155.74 423.13 156.47 414.09 157.08 405.28 157.56 396.7 157.49 388.09 157.38 379.68 157.3 371.44 156.89 363.15 156.72 354.98 156.87 346.91 157.03 338.72 157.73 330.56 159.05 322.42 160.67 314.09 163.05 305.72 166.19 297.28 169.8 288.63 174.19 279.89 179.33 271.06 184.91 262.06 191.16 253 197.98 243.95 205.11 234.85 212.69 225.87 220.62 217.11 228.66 208.53 236.94 200.36 245.36 192.74 253.75 185.58 262.2 179.15 270.68 173.6 279.02 168.72 287.37 164.82 295.69 161.96 303.85 159.77 312.01 158.57 320.19 158.29 328.22 158.38 336.31 159.14 344.48 160.39 352.54 161.49 360.73 162.7 369.08 163.83 377.37 164.26 385.85 164.3 394.55 163.86 403.23 162.45 412.16 160.52 421.34 158.14" stroke-dasharray="2 10" transform="rotate(23.2, 400, 400)" opacity="0.75"></path><path d="M424.02 169.44C432.85 166.4 441.64 163.33 450.35 160.42 459.05 157.43 467.65 155.03 476.09 153.38 484.47 152.22 492.63 152.1 500.5 153.07 508.24 154.81 515.58 157.71 522.45 161.67 529.08 166.35 535.13 171.94 540.5 178.29 545.54 185.06 549.83 192.33 553.3 199.95 556.43 207.61 558.74 215.39 560.27 223.17 561.58 230.71 562.23 238.11 562.36 245.34 562.61 252.17 562.63 258.82 562.63 265.28 563.26 271.33 564.28 277.27 565.91 283.13 568.68 288.66 572.4 294.21 577.21 299.84 583.4 305.24 590.73 310.81 599.11 316.58 608.56 322.22 618.67 328.13 629.11 334.34 639.71 340.48 649.86 346.96 659.09 353.8 667.25 360.6 673.67 367.78 677.95 375.34 680.23 382.88 679.99 390.82 677.14 399.17 672.31 407.51 665.4 416.07 656.89 424.83 647.54 433.61 637.52 442.59 627.37 451.75 617.75 460.94 608.81 470.3 600.86 479.8 594.37 489.3 589.2 498.9 585.38 508.53 583.16 518.08 582.1 527.58 581.98 536.91 582.99 546.02 584.45 554.81 586.08 563.13 588.11 571.03 589.8 578.27 590.93 584.69 589.96 597.84 576.23 604 567.53 601.84 560.93 600.03 553.64 597.83 545.8 595.53 537.63 593.88 529.07 592.68 520.24 592.22 511.25 593.13 502.11 595.2 492.91 598.54 483.66 603.51 474.43 609.73 465.27 617.04 456.1 625.43 447.05 634.32 438.13 643.26 429.23 652.07 420.48 659.98 411.88 666.48 403.29 671.51 395.05 674.3 387.15 674.74 379.22 673.25 371.6 669.5 364.27 663.74 356.87 656.57 349.73 648.04 342.82 638.57 335.79 628.77 328.95 618.81 322.25 609.05 315.38 599.97 308.61 591.6 301.9 584.13 294.97 577.85 288.05 572.56 281.13 568.22 273.96 565.03 266.75 562.56 259.51 560.63 252.05 559.47 244.59 558.49 237.15 557.49 229.58 556.79 222.13 555.76 214.86 554.26 207.63 552.7 200.72 550.48 194.21 547.58 187.97 544.42 182.27 540.52 177.21 535.91 172.59 531.01 168.7 525.46 165.61 519.31 163.01 512.94 161.21 506.06 160.2 498.76 159.56 491.32 159.59 483.55 160.24 475.51 160.98 467.41 162.12 459.11 163.57 450.65 164.76 442.19 166.04 433.61 167.33 424.94 168.08 416.28 168.72 407.73 169.21 399.31 169.17 390.88 169.07 382.55 168.97 374.32 168.53 366.04 168.28 357.81 168.3 349.61 168.29 341.32 168.76 333.02 169.77 324.7 171.04 316.24 172.99 307.72 175.66 299.14 178.75 290.42 182.59 281.64 187.14 272.83 192.14 263.93 197.8 255.06 204.06 246.27 210.65 237.54 217.73 229.02 225.21 220.82 232.87 212.88 240.82 205.42 248.97 198.57 257.17 192.22 265.48 186.62 273.86 181.89 282.18 177.79 290.53 174.62 298.89 172.41 307.13 170.78 315.38 170.02 323.64 170.06 331.78 170.38 339.95 171.23 348.17 172.49 356.3 173.52 364.51 174.61 372.81 175.58 381.07 175.86 389.46 175.76 397.98 175.2 406.5 173.74 415.17 171.79 424.01 169.44" stroke-dasharray="10 10" transform="rotate(26.099999999999998, 400, 400)" opacity="0.72"></path><path d="M424.33 180.73C432.77 177.77 441.07 174.78 449.21 171.94 457.33 168.99 465.25 166.56 472.93 164.81 480.55 163.47 487.87 163.07 494.82 163.68 501.64 164.98 508.02 167.35 513.89 170.75 519.55 174.84 524.62 179.83 529.04 185.61 533.21 191.84 536.69 198.64 539.47 205.87 542.02 213.24 543.92 220.82 545.2 228.5 546.42 236.05 547.19 243.56 547.64 250.96 548.36 258.07 549.04 265.03 549.86 271.83 551.38 278.29 553.38 284.62 556.03 290.85 559.76 296.77 564.38 302.67 569.97 308.58 576.75 314.27 584.47 320.04 593.02 325.95 602.39 331.72 612.2 337.69 622.14 343.89 632.07 350 641.46 356.4 649.87 363.1 657.24 369.76 662.96 376.75 666.7 384.09 668.63 391.41 668.27 399.09 665.56 407.15 661.06 415.21 654.67 423.47 646.78 431.89 638.09 440.32 628.7 448.92 619.09 457.66 609.84 466.4 601.08 475.25 593.1 484.16 586.33 493.04 580.68 501.92 576.2 510.74 573.15 519.43 571.17 527.95 570.11 536.2 570.16 544.18 570.76 551.75 571.67 558.77 574.83 582.43 565.85 589.08 558.97 586.9 553.67 585.35 547.65 583.63 541.03 581.98 534.09 581.07 526.68 580.69 518.9 581.07 510.93 582.75 502.72 585.49 494.34 589.38 485.88 594.68 477.34 601.05 468.78 608.3 460.2 616.45 451.64 624.95 443.15 633.39 434.66 641.67 426.24 649.08 417.92 655.18 409.61 659.96 401.57 662.71 393.82 663.33 386.04 662.2 378.51 659 371.21 653.94 363.85 647.54 356.69 639.79 349.7 631.06 342.61 621.9 335.65 612.41 328.78 602.95 321.78 593.93 314.82 585.42 307.9 577.59 300.79 570.74 293.68 564.73 286.56 559.56 279.25 555.44 271.92 552.03 264.59 549.2 257.11 547.16 249.66 545.42 242.28 543.83 234.87 542.64 227.62 541.31 220.6 539.71 213.71 538.19 207.17 536.2 201.08 533.67 195.29 531.02 190.07 527.76 185.49 523.88 181.35 519.8 177.92 515.1 175.27 509.83 173.07 504.39 171.62 498.42 170.91 491.99 170.52 485.45 170.75 478.5 171.55 471.22 172.4 463.88 173.61 456.25 175.1 448.39 176.33 440.51 177.62 432.43 178.92 424.17 179.69 415.9 180.35 407.66 180.86 399.46 180.85 391.25 180.77 383.06 180.67 374.89 180.23 366.69 179.92 358.48 179.85 350.26 179.7 341.97 179.97 333.64 180.72 325.27 181.66 316.82 183.23 308.31 185.44 299.76 188.02 291.15 191.31 282.51 195.28 273.9 199.67 265.3 204.71 256.79 210.35 248.45 216.34 240.25 222.85 232.34 229.79 224.83 236.96 217.63 244.46 210.97 252.22 204.95 260.08 199.43 268.12 194.67 276.27 190.74 284.43 187.38 292.65 184.89 300.91 183.27 309.11 182.12 317.33 181.74 325.55 182.04 333.7 182.51 341.86 183.42 350.04 184.63 358.16 185.57 366.32 186.51 374.52 187.31 382.69 187.44 390.92 187.19 399.22 186.52 407.51 185.01 415.88 183.06 424.32 180.74" stroke-dasharray="3 3" transform="rotate(29, 400, 400)" opacity="0.68"></path><path d="M422.26 192.03C430.26 189.15 438.05 186.25 445.59 183.47 453.12 180.58 460.38 178.15 467.32 176.32 474.21 174.82 480.74 174.18 486.86 174.45 495.63 176.28 510.43 185.75 516.28 193.1 519.82 198.75 522.76 205.01 525.12 211.75 527.38 218.72 529.12 225.98 530.43 233.43 531.81 240.84 532.92 248.31 533.87 255.75 535.21 262.99 536.64 270.14 538.34 277.18 540.75 283.94 543.68 290.6 547.27 297.15 551.84 303.43 557.21 309.66 563.41 315.86 570.6 321.86 578.54 327.89 587.09 333.99 596.26 339.95 605.67 346.04 615.04 352.3 624.27 358.47 632.87 364.86 640.49 371.48 647.1 378.06 652.16 384.92 655.4 392.07 657.01 399.19 656.55 406.64 653.97 414.39 649.8 422.15 643.9 430.05 636.62 438.07 628.57 446.09 619.81 454.22 610.75 462.42 601.93 470.59 593.42 478.81 585.5 487 578.57 495.13 572.56 503.17 567.54 511.05 563.78 518.78 560.98 526.24 559.05 533.34 558.05 543.35 559.17 559.97 560.19 566.17 557.22 573.58 541.86 570.53 533.93 569.02 528.15 568.86 521.84 569.28 515.11 570.45 508.19 572.82 500.93 576.15 493.43 580.47 485.83 586.03 478.05 592.46 470.16 599.6 462.24 607.46 454.25 615.54 446.24 623.5 438.23 631.24 430.21 638.17 422.21 643.89 414.21 648.41 406.41 651.11 398.82 651.87 391.21 651.09 383.78 648.4 376.52 643.99 369.21 638.32 362.04 631.35 354.99 623.38 347.85 614.9 340.79 605.97 333.79 596.91 326.68 588.1 319.59 579.6 312.52 571.59 305.3 564.34 298.08 557.78 290.86 551.94 283.51 547.01 276.16 542.74 268.85 539.05 261.46 536.13 254.14 533.59 246.96 531.29 239.8 529.47 232.86 527.67 226.2 525.74 219.72 524.01 213.63 521.98 208.02 519.57 200.38 515.7 188.82 505.29 185.12 498.67 182.75 491.35 181.82 474.18 182.94 464.5 183.89 457.86 185.15 450.88 186.66 443.59 187.91 436.29 189.21 428.71 190.5 420.88 191.3 413.05 191.98 405.16 192.52 397.23 192.54 389.3 192.5 381.32 192.42 373.31 191.98 365.28 191.65 357.19 191.51 349.07 191.26 340.91 191.36 332.69 191.88 324.43 192.54 316.14 193.75 307.82 195.54 299.48 197.65 291.15 200.41 282.85 203.8 274.63 207.58 266.5 211.99 258.52 216.98 250.79 222.33 243.26 228.2 236.08 234.52 229.35 241.11 222.97 248.06 217.15 255.31 211.99 262.72 207.3 270.35 203.34 278.14 200.18 285.99 197.51 293.94 195.63 301.95 194.52 309.97 193.78 318.02 193.7 326.08 194.19 334.11 194.75 342.15 195.66 350.19 196.8 358.2 197.62 366.21 198.4 374.22 199.02 382.22 198.98 390.22 198.6 398.23 197.83 406.24 196.27 414.25 194.31 422.25 192.03" stroke-dasharray="9 11" transform="rotate(31.9, 400, 400)" opacity="0.65"></path><path d="M418.01 203.33C425.53 200.54 432.79 197.73 439.75 195.04 446.7 192.21 453.32 189.79 459.59 187.91 468.72 185.87 484.78 186.62 491.57 189.64 497.7 194.43 507.28 208.7 510.81 217.71 513.01 224.17 514.85 231 516.4 238.08 518.12 245.23 519.73 252.51 521.32 259.84 523.35 267.07 525.58 274.27 528.14 281.4 531.4 288.35 535.18 295.21 539.58 301.99 544.83 308.55 550.78 315.05 557.42 321.5 564.85 327.77 572.85 334.04 581.28 340.34 590.12 346.5 599.04 352.74 607.78 359.08 616.28 365.34 624.11 371.75 630.96 378.33 636.84 384.86 641.28 391.61 644.05 398.57 645.38 405.52 644.83 412.71 642.38 420.14 638.52 427.57 633.09 435.08 626.4 442.63 618.97 450.18 610.85 457.76 602.36 465.33 593.99 472.87 585.8 480.36 578.03 487.75 571.05 495.05 564.8 502.19 559.37 509.08 555.02 515.8 551.52 522.2 548.81 528.18 545.59 555.54 540.53 559.39 536.38 558.02 531.14 557.16 517.27 557.88 508.87 560.35 502.94 563.33 496.62 567.14 489.99 571.81 483.25 577.52 476.27 583.95 469.09 590.91 461.87 598.45 454.49 606.11 447.01 613.57 439.52 620.8 431.95 627.25 424.32 632.59 416.68 636.87 409.16 639.49 401.78 640.39 394.38 639.9 387.08 637.69 379.9 633.89 372.68 628.93 365.54 622.72 358.47 615.51 351.33 607.74 344.24 599.44 337.18 590.87 330.03 582.39 322.9 574.05 315.77 566.02 308.55 558.56 301.32 551.63 294.12 545.27 286.85 539.68 279.6 534.68 272.43 530.22 265.25 526.47 258.19 523.13 251.31 520.09 244.51 517.57 237.98 515.16 231.77 512.76 222.99 509.5 208.28 502 202.65 497.42 198.25 492.38 193.36 479.93 192.79 472.51 192.84 467.36 193.41 461.77 194.42 455.79 195.44 449.77 196.74 443.38 198.26 436.64 199.51 429.89 200.8 422.81 202.09 415.43 202.9 408.05 203.6 400.55 204.17 392.96 204.24 385.37 204.24 377.68 204.19 369.93 203.78 362.17 203.46 354.34 203.28 346.45 202.96 338.55 202.93 330.6 203.26 322.62 203.68 314.66 204.57 306.69 205.99 298.75 207.66 290.87 209.92 283.07 212.77 275.41 215.95 267.89 219.73 260.59 224.07 253.58 228.74 246.82 233.94 240.46 239.6 234.57 245.53 229.04 251.85 224.09 258.5 219.77 265.35 215.89 272.45 212.69 279.74 210.22 287.15 208.18 294.69 206.82 302.33 206.14 310.01 205.73 317.76 205.87 325.53 206.48 333.3 207.08 341.1 207.95 348.87 208.97 356.65 209.65 364.41 210.25 372.14 210.69 379.86 210.49 387.56 209.98 395.21 209.11 402.87 207.51 410.47 205.57 418 203.33" stroke-dasharray="3 0" transform="rotate(34.800000000000004, 400, 400)" opacity="0.62"></path><path d="M411.99 214.62C419.02 211.93 425.75 209.22 432.16 206.62 438.55 203.88 444.6 201.49 450.28 199.57 458.54 197.35 472.94 197.19 479.02 199.49 484.57 203.42 493.53 215.78 497.1 223.85 499.44 229.73 501.56 236.03 503.51 242.64 505.71 249.39 507.91 256.34 510.2 263.41 512.94 270.46 515.95 277.56 519.31 284.65 523.33 291.62 527.83 298.55 532.88 305.43 538.66 312.15 545.02 318.82 551.91 325.43 559.42 331.9 567.32 338.34 575.49 344.78 583.9 351.11 592.26 357.47 600.34 363.87 608.1 370.21 615.16 376.63 621.26 383.16 626.45 389.65 630.32 396.27 632.66 403.04 633.73 409.8 633.11 416.72 630.8 423.8 627.23 430.88 622.26 437.95 616.12 444.99 609.31 452.02 601.8 459.01 593.9 465.91 586.02 472.76 578.2 479.5 570.65 486.04 563.72 492.51 557.35 498.73 551.64 504.64 544.8 513.1 535.92 527.54 533.5 533.27 528.78 544.24 518.92 544.48 513.61 545.1 507.49 547.33 492.62 556.35 484.08 563.37 478.17 569.15 471.96 575.5 465.48 582.24 458.96 589.43 452.22 596.64 445.3 603.61 438.36 610.33 431.27 616.32 424.04 621.29 416.81 625.33 409.62 627.87 402.49 628.87 395.35 628.65 388.25 626.87 381.2 623.64 374.13 619.36 367.09 613.88 360.08 607.43 353.03 600.39 345.99 592.76 338.97 584.76 331.89 576.72 324.81 568.68 317.75 560.78 310.64 553.28 303.54 546.15 296.49 539.46 289.42 533.39 282.41 527.81 275.51 522.7 268.66 518.23 261.97 514.15 255.5 510.4 249.17 507.15 243.12 504.09 237.43 501.13 229.48 497.15 216.46 488.91 211.62 484.3 207.94 479.44 204.16 467.85 203.96 461.05 204.55 453.81 207.71 437.33 209.88 428.14 211.12 421.89 212.41 415.3 213.67 408.38 214.5 401.46 215.22 394.38 215.81 387.19 215.94 380 215.98 372.7 215.98 365.3 215.62 357.92 215.32 350.46 215.13 342.94 214.77 335.44 214.65 327.91 214.84 320.37 215.05 312.88 215.69 305.42 216.78 298.04 218.05 290.75 219.86 283.59 222.19 276.63 224.81 269.84 227.99 263.31 231.69 257.12 235.69 251.19 240.2 245.68 245.16 240.66 250.4 235.98 256.03 231.86 262.02 228.34 268.21 225.21 274.68 222.71 281.39 220.86 288.23 219.34 295.25 218.43 302.38 218.09 309.6 217.93 316.91 218.21 324.26 218.88 331.65 219.47 339.06 220.25 346.46 221.13 353.89 221.64 361.29 222.06 368.65 222.31 376.01 221.97 383.33 221.33 390.56 220.37 397.8 218.74 404.95 216.81 411.98 214.63" stroke-dasharray="7 7" transform="rotate(37.7, 400, 400)" opacity="0.59"></path><path d="M404.8 225.92C411.33 223.33 417.55 220.73 423.45 218.23 432.1 214.41 447.61 208.96 454.42 207.85 460.8 208 471.69 212.75 476.27 217.31 480.61 223.2 488.35 238.37 492.07 247.26 494.82 253.5 497.64 260 500.62 266.67 504.05 273.41 507.76 280.24 511.82 287.12 516.46 293.97 521.54 300.82 527.08 307.64 533.21 314.37 539.79 321.07 546.77 327.72 554.2 334.27 561.87 340.8 569.67 347.29 577.57 353.7 585.31 360.1 592.69 366.52 599.7 372.87 606.01 379.26 611.4 385.7 615.94 392.11 619.27 398.58 621.23 405.13 622.06 411.66 621.39 418.29 619.21 424.98 615.94 431.68 611.39 438.29 605.79 444.8 599.57 451.3 592.68 457.67 585.36 463.88 577.99 470.05 570.59 476.03 563.34 481.76 556.55 487.41 550.17 492.77 544.3 497.79 536.91 504.92 526.24 516.75 522.74 521.28 514.73 530.31 505.67 532.57 501.21 534.22 496.09 537.4 483.4 547.8 475.96 555.12 470.8 560.89 465.29 567.09 459.49 573.57 453.64 580.38 447.52 587.13 441.16 593.61 434.78 599.84 428.19 605.38 421.41 610 414.62 613.78 407.81 616.24 400.99 617.32 394.16 617.34 387.33 615.95 380.5 613.25 373.66 609.59 366.81 604.82 359.96 599.11 353.09 592.81 346.21 585.88 339.34 578.52 332.45 571.02 325.56 563.38 318.69 555.76 311.81 548.38 304.97 541.23 298.2 534.39 291.46 528.01 284.81 522.02 278.31 516.43 271.9 511.36 265.69 506.65 259.72 502.27 253.93 498.35 248.44 494.65 243.34 491.1 236.27 486.31 224.98 476.96 220.92 472.08 217.92 467.13 215.17 455.88 215.3 449.46 216.09 442.69 219.39 427.38 221.53 418.86 222.75 413.05 224.01 406.92 225.26 400.46 226.09 394 226.83 387.38 227.44 380.63 227.63 373.9 227.73 367.05 227.78 360.11 227.48 353.2 227.22 346.21 227.05 339.19 226.68 332.21 226.52 325.21 226.6 318.25 226.67 311.36 227.09 304.54 227.9 297.83 228.84 291.25 230.24 284.84 232.12 278.66 234.22 272.67 236.83 266.97 239.92 261.64 243.28 256.56 247.11 251.9 251.38 247.73 255.9 243.86 260.82 240.52 266.1 237.75 271.58 235.29 277.37 233.39 283.4 232.06 289.59 230.98 295.98 230.41 302.52 230.33 309.17 230.33 315.92 230.7 322.74 231.35 329.62 231.88 336.55 232.54 343.47 233.25 350.44 233.59 357.38 233.83 364.28 233.89 371.2 233.4 378.06 232.64 384.82 231.6 391.59 229.96 398.26 228.05 404.79 225.92" stroke-dasharray="7 10" transform="rotate(40.6, 400, 400)" opacity="0.56"></path><path d="M397.14 237.22C403.17 234.73 408.92 232.25 414.35 229.86 419.78 227.32 424.9 225.05 429.69 223.13 439.24 219.73 447.5 218.64 454.53 220.1 461.65 223.21 467.82 229.01 473.33 237.12 479.54 246.56 485.82 257.67 492.64 269.86 501.1 282.49 510.84 295.62 522.03 308.87 535.05 321.99 549.21 335.07 563.73 347.98 578.28 360.67 591.3 373.32 601.37 385.9 605.32 392.17 608.15 398.44 609.76 404.72 610.38 410.99 609.67 417.28 607.62 423.57 604.63 429.86 600.5 436 595.41 441.97 589.75 447.93 583.46 453.7 576.72 459.25 563.13 470.25 549.62 480.19 537.3 488.77 527.31 496.94 519.27 503.48 513.04 508.21 507.63 513.76 500.25 518.04 495.08 519.52 491.15 522.48 485.58 526.83 478.39 533.05 470.89 542.07 461.86 552.92 451.49 564.89 446.25 571.29 440.71 577.58 434.9 583.58 429.08 589.33 423 594.43 416.68 598.7 410.36 602.25 403.96 604.61 397.51 605.75 391.07 605.96 384.57 604.93 378.04 602.71 364.98 595.77 351.78 585.14 338.58 572.09 325.42 558.18 312.32 543.8 299.54 529.89 287.02 517.3 275.1 505.89 264.16 495.7 253.97 487.12 245.18 479.27 238.21 471.77 232.38 465.14 228.56 458.15 226.88 450.49 226.08 443.06 226.99 434.58 229.35 424.96 231.11 417.6 235.02 401.35 236.85 392.49 237.68 386.48 238.43 380.33 239.07 374.08 239.31 367.83 239.47 361.49 239.59 355.08 238.84 342.35 238.38 329.49 238.52 316.83 238.44 304.51 239.72 292.69 242.54 281.81 246.04 271.67 251.36 262.87 258.35 255.84 266.23 249.85 275.59 245.79 286.09 243.77 297.2 242.41 309.11 242.57 321.45 243.86 334.09 244.49 346.93 245.16 359.65 245.41 366.05 244.78 372.4 243.92 378.65 242.81 384.93 241.16 391.1 239.28 397.13 237.22" stroke-dasharray="6 6" transform="rotate(43.5, 400, 400)" opacity="0.53"></path><path d="M389.76 248.51C400.87 243.46 410.95 238.77 419.95 235.02 428.93 231.55 436.89 230.09 443.91 230.87 451.12 233.04 457.72 237.66 463.99 244.44 471 252.5 478.3 262.26 486.22 273.22 495.56 284.76 506.01 296.97 517.59 309.47 530.5 322.04 544.1 334.66 557.64 347.15 570.87 359.55 582.45 371.85 591.19 383.96 597.21 396.03 598.99 407.99 596.04 419.72 589.82 431.45 580.05 442.35 567.99 452.27 555.43 462.08 542.62 470.73 530.57 478.03 520.31 485.04 511.57 490.57 504.36 494.54 497.1 499.57 486.95 505.25 481.42 508.42 477.6 512.49 472.5 517.88 466.04 524.85 459.41 534.13 451.38 544.8 442.05 556.19 432.61 568.17 421.99 579.03 410.32 587.4 398.64 593.29 386.55 594.81 374.24 592.03 361.98 586.25 349.53 577.04 337.1 565.41 324.79 552.74 312.61 539.25 300.84 525.82 289.42 513.22 278.69 501.42 269.01 490.6 260.09 481.08 252.56 472.29 246.76 463.97 241.97 456.49 239.01 448.93 237.97 441.01 237.61 433.39 238.75 425.02 241.15 415.8 243.21 406.61 245.74 396.43 248.43 385.3 249.72 374.16 250.7 362.62 251.39 350.95 250.82 339.38 250.46 327.84 250.58 316.64 250.35 305.78 251.25 295.55 253.45 286.34 256.12 277.79 260.39 270.58 266.18 265.02 272.71 260.28 280.65 257.24 289.72 255.92 299.36 254.98 309.86 255.24 320.87 256.37 332.2 256.71 343.81 257 355.4 256.87 367.1 254.9 378.64 252.06 389.75 248.52" stroke-dasharray="1 10" transform="rotate(46.4, 400, 400)" opacity="0.49"></path><path d="M383.38 259.81C393.59 255.02 402.98 250.59 411.52 246.97 420.09 243.5 427.91 241.76 435.08 241.96 442.5 243.29 449.61 246.82 456.62 252.34 464.36 259.02 472.49 267.38 481.25 276.98 491.16 287.25 501.98 298.33 513.59 309.83 526.1 321.53 538.9 333.41 551.31 345.23 563.19 357.06 573.35 368.78 580.85 380.25 585.93 391.72 587.26 402.96 584.45 413.81 578.85 424.67 570.07 434.58 559.16 443.43 547.64 452.2 535.65 459.81 524.04 466.15 513.76 472.33 504.59 477.21 496.68 480.84 487.84 485.85 474.88 493.49 468.66 498.28 464.67 503.33 459.72 509.53 453.68 517.03 447.6 526.39 440.32 536.74 431.85 547.47 423.31 558.53 413.65 568.45 402.94 576.11 392.24 581.62 381.07 583.3 369.66 581.21 358.33 576.5 346.82 568.63 335.36 558.43 324.09 547.08 313.01 534.68 302.42 521.99 292.24 509.73 282.8 497.91 274.44 486.79 266.8 476.67 260.51 467.18 255.82 458.21 251.99 449.98 249.81 441.86 249.31 433.63 249.31 425.72 250.62 417.35 253.01 408.41 255.02 399.53 257.44 389.94 260.02 379.63 261.32 369.32 262.37 358.82 263.18 348.35 262.81 337.98 262.59 327.79 262.73 318.08 262.45 308.67 263.08 300 264.8 292.38 266.8 285.31 270.18 279.51 274.9 275.21 280.2 271.5 286.8 269.25 294.5 268.42 302.69 267.73 311.77 267.96 321.44 268.83 331.39 268.85 341.72 268.76 352.15 268.27 362.68 266.12 373.17 263.25 383.38 259.81" stroke-dasharray="5 2" transform="rotate(49.3, 400, 400)" opacity="0.46"></path><path d="M378.63 271.1C387.99 266.6 396.79 262.44 404.98 258.99 413.23 255.58 421 253.63 428.38 253.36 436.04 253.97 443.61 256.52 451.25 260.87 459.54 266.23 468.27 273.19 477.54 281.39 487.71 290.27 498.54 300.05 509.85 310.36 521.7 320.96 533.52 331.86 544.71 342.77 555.21 353.78 564.02 364.71 570.35 375.38 574.58 386.08 575.52 396.51 572.86 406.48 567.84 416.44 560.01 425.44 550.22 433.4 539.77 441.31 528.68 448.13 517.66 453.81 507.58 459.45 498.26 464.02 489.9 467.62 482.93 471.42 476.76 474.58 471.16 477.37 466.56 480.96 462.01 484.78 457.23 489.13 452.85 494.95 447.82 501.75 441.98 509.55 436.2 518.8 429.43 528.7 421.66 538.7 413.85 548.85 405.04 557.85 395.28 564.81 385.52 569.94 375.34 571.74 364.94 570.25 354.63 566.51 344.2 559.92 333.88 551.11 323.77 541.13 313.93 529.95 304.63 518.23 295.76 506.61 287.66 495.11 280.62 484.05 274.23 473.68 269.1 463.81 265.44 454.42 262.47 445.64 260.96 437.08 260.91 428.58 261.2 420.4 262.6 412 264.93 403.3 266.86 394.68 269.15 385.59 271.61 376.08 272.91 366.56 274.03 357.07 274.95 347.78 274.78 338.57 274.73 329.71 274.96 321.43 274.7 313.41 275.19 306.18 276.56 299.98 279.36 291.9 291.44 282.56 300.58 281.18 307.41 280.56 315.13 280.66 323.48 281.2 332.08 280.87 341.14 280.41 350.43 279.59 359.8 277.3 369.26 274.42 378.63 271.1" stroke-dasharray="7 4" transform="rotate(52.199999999999996, 400, 400)" opacity="0.43"></path><path d="M375.97 282.4C384.56 278.19 392.82 274.31 400.72 271.06 408.69 267.76 416.42 265.7 423.99 265.05 431.82 265.08 439.72 266.78 447.8 270.06 456.4 274.21 465.42 279.82 474.87 286.63 484.96 294.09 495.48 302.47 506.21 311.46 517.17 320.8 527.87 330.51 537.77 340.35 546.92 350.32 554.44 360.28 559.71 370.04 563.16 379.84 563.77 389.37 561.28 398.46 556.81 407.56 549.87 415.74 541.16 422.97 531.78 430.17 521.64 436.43 511.36 441.73 501.69 447.08 492.47 451.6 483.92 455.4 476.47 459.51 469.65 463.23 463.38 466.79 457.97 471.14 452.74 475.78 447.45 480.94 442.61 487.32 437.36 494.48 431.55 502.36 425.87 511.32 419.43 520.66 412.21 529.89 404.99 539.11 396.93 547.23 388.08 553.51 379.22 558.26 370.05 560.13 360.73 559.16 351.49 556.29 342.22 550.87 333.14 543.41 324.25 534.81 315.72 524.94 307.77 514.35 300.2 503.63 293.42 492.76 287.65 482.09 282.44 471.84 278.38 461.92 275.62 452.41 273.41 443.35 272.45 434.54 272.74 425.93 273.24 417.58 274.68 409.2 276.91 400.75 278.72 392.37 280.87 383.78 283.19 375.01 284.49 366.23 285.66 357.7 286.68 349.53 286.73 341.41 286.86 333.78 287.23 326.81 287.28 317.04 290.81 302.53 294.95 298.17 300.48 295.16 316.86 293.33 327.24 293.43 334.56 292.76 342.42 291.94 350.62 290.83 358.88 288.43 367.38 285.58 375.97 282.4" stroke-dasharray="1 9" transform="rotate(55.099999999999994, 400, 400)" opacity="0.40"></path><path d="M375.66 293.7C383.53 289.8 391.29 286.21 398.9 283.19 406.58 280.04 414.22 277.94 421.86 277.03 429.72 276.6 437.76 277.59 446.01 279.96 454.65 283.01 463.65 287.38 472.95 292.87 482.65 298.92 492.58 305.9 502.48 313.53 512.4 321.5 521.88 329.93 530.47 338.57 538.31 347.36 544.62 356.23 548.91 364.98 551.68 373.77 552.01 382.37 549.69 390.61 545.74 398.85 539.66 406.3 531.98 412.94 523.66 419.59 514.52 425.46 505.08 430.59 495.99 435.81 487.09 440.44 478.63 444.59 470.97 449.07 463.78 453.37 457.05 457.63 451.04 462.62 445.25 467.91 439.52 473.65 434.22 480.36 428.71 487.65 422.87 495.41 417.17 503.94 410.96 512.62 404.19 521.02 397.43 529.32 390.04 536.58 382.04 542.22 374.05 546.58 365.86 548.48 357.65 547.94 349.5 545.84 341.41 541.49 333.59 535.3 325.94 528.06 318.7 519.54 312.07 510.19 305.77 500.56 300.23 490.58 295.64 480.6 291.48 470.8 288.35 461.17 286.38 451.84 284.78 442.82 284.26 434.03 284.8 425.49 285.42 417.15 286.84 408.91 288.94 400.76 290.62 392.68 292.61 384.59 294.78 376.53 296.06 368.47 297.27 360.81 298.38 353.66 298.8 343.26 299.7 325.95 300.98 319.45 306.64 311.06 324.03 305.92 332.79 305.49 338.98 304.49 345.74 303.35 352.95 301.98 360.19 299.52 367.8 296.72 375.66 293.7" stroke-dasharray="6 6" transform="rotate(58, 400, 400)" opacity="0.37"></path><path d="M377.74 304.99C384.93 301.41 392.19 298.13 399.47 295.35 406.8 292.41 414.24 290.35 421.78 289.27 429.5 288.51 437.43 288.94 445.57 290.54 453.97 292.65 462.64 295.92 471.47 300.21 480.51 304.96 489.6 310.58 498.49 316.88 507.26 323.48 515.48 330.58 522.78 337.98 529.36 345.53 534.55 353.24 537.97 360.94 540.14 368.68 540.24 376.33 538.1 383.74 534.64 391.15 529.36 397.94 522.66 404.11 515.38 410.3 507.27 415.91 498.75 420.98 490.38 426.18 482.01 430.98 473.87 435.49 466.28 440.34 459 445.12 452.08 449.96 445.71 455.4 439.55 461.12 433.53 467.18 427.88 473.98 422.15 481.17 416.27 488.63 410.54 496.59 404.5 504.53 398.11 512.09 391.75 519.48 384.96 525.92 377.77 530.92 370.58 534.89 363.35 536.77 356.2 536.6 349.1 535.15 342.18 531.78 335.57 526.76 329.12 520.81 323.11 513.63 317.71 505.6 312.57 497.18 308.15 488.29 304.59 479.23 301.35 470.19 299.02 461.16 297.67 452.32 296.56 443.64 296.37 435.14 297.05 426.9 297.74 418.79 299.09 410.85 301.01 403.11 302.54 395.42 304.35 387.86 306.37 380.48 307.61 373.11 308.85 366.26 310.03 359.99 310.74 350.93 312.15 336.25 313.45 330.86 318.26 323.65 332.66 318.31 340.06 317.34 345.28 316.03 351.1 314.62 357.42 313.04 363.76 310.56 370.55 307.84 377.74 304.99" stroke-dasharray="2 7" transform="rotate(60.9, 400, 400)" opacity="0.34"></path><path d="M382 316.29C388.54 313.03 395.27 310.07 402.12 307.56 409.02 304.87 416.12 302.9 423.36 301.75 430.72 300.78 438.3 300.79 446.04 301.78 453.94 303.13 462 305.47 470.1 308.71 478.26 312.3 486.34 316.69 494.1 321.74 501.65 327.03 508.6 332.85 514.65 339.03 520.07 345.34 524.24 351.89 526.9 358.53 528.54 365.22 528.46 371.93 526.51 378.54 523.52 385.16 518.98 391.35 513.22 397.11 506.94 402.89 499.86 408.29 492.31 413.35 484.79 418.53 477.11 423.49 469.5 428.29 462.23 433.39 455.13 438.51 448.27 443.72 441.81 449.39 435.53 455.3 429.4 461.44 423.57 468.1 417.75 474.98 411.9 481.96 406.2 489.25 400.35 496.39 394.32 503.09 388.33 509.59 382.11 515.22 375.67 519.63 369.23 523.2 362.9 525.03 356.76 525.15 350.65 524.25 344.81 521.72 339.34 517.77 333.98 513.03 329.08 507.15 324.78 500.43 320.66 493.3 317.2 485.62 314.51 477.66 312.03 469.6 310.33 461.43 309.46 453.33 308.72 445.29 308.73 437.35 309.48 429.63 310.16 421.99 311.39 414.53 313.12 407.32 314.48 400.14 316.11 393.16 317.95 386.47 319.77 376.71 322.59 360.2 323.8 353.54 326.01 343.25 333.15 333.77 337.52 332.22 342.56 330.42 355.79 326.55 363.85 324.02 369.4 321.54 375.46 318.94 382 316.29" stroke-dasharray="10 4" transform="rotate(63.8, 400, 400)" opacity="0.30"></path><path d="M388.02 327.59C399.83 321.32 412.69 316.72 426.09 314.42 439.77 312.46 454.21 313.85 468.52 318.35 482.72 323.84 495.84 332.05 506.09 342.02 514.18 352.4 517.56 363.87 514.93 375.57 509.08 387.28 498.64 398.1 485.72 407.97 472.53 418.28 458.71 428.5 445.4 438.81 433.14 450.47 421.22 462.89 409.75 475.35 398.73 488.46 387.41 500.16 375.96 508.33 364.5 513.93 353.96 513.67 344.96 508.33 336.22 500.42 329.47 488.89 325.32 475.56 321.63 461.61 320.54 447.07 322.04 433.07 323.1 419.19 325.74 405.89 329.54 393.85 331.25 381.81 333.35 372.05 335.78 364.67 337.67 354.59 348.43 343.6 358.81 340.25 366.42 336.19 376.22 331.88 388.02 327.59" stroke-dasharray="5 8" transform="rotate(66.7, 400, 400)" opacity="0.27"></path><path d="M395.22 338.88C405.73 333.38 417.3 329.37 429.35 327.26 441.53 325.22 454.2 325.86 466.44 329.08 478.35 332.92 489.04 339.14 497.08 347.11 503.37 355.37 505.78 364.9 503.34 375.14 498.49 385.37 489.81 395.35 478.91 404.9 467.57 414.8 455.31 424.87 443.2 435.05 431.69 446.11 420.37 457.59 409.57 468.74 399.1 480.12 388.68 490.1 378.6 497.03 368.51 502.03 359.64 502.3 352.36 498.43 345.23 492.56 339.95 483.51 336.9 472.64 334.05 461.09 333.32 448.69 334.69 436.51 335.57 424.31 337.79 412.53 341.13 401.87 342.8 391.21 344.99 382.58 347.58 376 350.01 366.8 360.31 355.37 369.49 351.24 376.11 347.06 384.71 342.84 395.22 338.88" stroke-dasharray="3 6" transform="rotate(69.60000000000001, 400, 400)" opacity="0.24"></path><path d="M402.88 350.18C412.06 345.45 422.13 342.05 432.53 340.23 442.95 338.29 453.58 338.48 463.59 340.76 473.2 343.35 481.57 347.98 487.62 354.25 492.34 360.68 493.95 368.48 491.75 377.28 487.82 386.09 480.79 395.09 471.84 404.02 462.41 413.2 451.95 422.68 441.37 432.21 431.06 442.25 420.79 452.44 411 462.06 401.43 471.68 392.08 479.97 383.33 485.74 374.58 490.09 367.17 490.73 361.32 488.09 355.52 483.98 351.38 477.18 349.09 468.69 346.82 459.56 346.26 449.46 347.4 439.28 348.04 429.02 349.86 418.95 352.71 409.7 354.31 400.45 356.51 392.85 359.17 386.89 362.04 378.38 372.13 366.56 380.35 361.9 386.18 357.76 393.7 353.75 402.88 350.18" stroke-dasharray="5 10" transform="rotate(72.5, 400, 400)" opacity="0.21"></path><path d="M410.26 361.48C418.04 357.53 426.45 354.75 434.99 353.27 443.5 351.6 451.97 351.58 459.74 353.2 467.14 354.94 473.39 358.34 477.71 363.2 481.1 368.14 482.08 374.4 480.17 381.79 477.07 389.17 471.56 397.02 464.47 405 456.95 413.12 448.41 421.58 439.6 430.01 430.85 438.68 422.01 447.31 413.54 455.28 405.18 463.11 397.11 469.79 389.7 474.44 379.24 478.55 365.13 472.23 361.7 463.51 359.81 456.69 359.29 448.88 360.13 440.78 360.52 432.57 361.93 424.3 364.3 416.52 365.77 408.74 367.89 402.14 370.5 396.75 373.66 388.94 383.5 377.07 390.85 372.19 396 368.27 402.48 364.6 410.26 361.48" stroke-dasharray="6 5" transform="rotate(75.4, 400, 400)" opacity="0.18"></path><path d="M416.64 372.77C429.27 366.03 443.2 363.75 454.74 366.18 465.17 368.62 470.98 376.24 468.58 388.18 463.25 400.11 451.36 414.33 437.59 428.15 423.7 442.26 409.14 455.45 397.08 463.14 385.01 468.42 377.33 465.43 374.46 457 371.1 447.17 371.57 434.17 375.89 421.63 377.83 409.08 382.54 399.25 389.23 392.46 394.78 384.36 404 377.39 416.64 372.77" stroke-dasharray="10 2" transform="rotate(78.3, 400, 400)" opacity="0.15"></path><path d="M421.38 384.07C430.96 379.08 440.82 377.55 448.49 379.44 455.47 381.16 459.04 386.73 456.99 395.79 453.33 404.84 445 415.81 435.07 426.31 424.91 436.79 413.95 446.34 404.74 451.85 392.55 455.27 384.34 438.41 387.47 424.49 389.22 415.04 393.42 406.87 399.16 400.7 404.22 393.79 411.8 387.84 421.38 384.07" stroke-dasharray="7 2" transform="rotate(81.2, 400, 400)" opacity="0.11"></path><path d="M424.03 395.37C436.88 388.39 447.69 391.61 445.41 403.84 440.33 416.06 424.44 433.1 411.94 440.55 399.43 445.66 394.49 437.41 399.06 424.81 401.12 412.2 411.17 400.15 424.03 395.37" stroke-dasharray="4 6" transform="rotate(84.1, 400, 400)" opacity="0.08"></path></g></svg>