<svg xmlns="http://www.w3.org/2000/svg" version="1.1" xmlns:xlink="http://www.w3.org/1999/xlink" xmlns:svgjs="http://svgjs.dev/svgjs" viewBox="0 0 800 800" opacity="1"><defs><linearGradient x1="50%" y1="0%" x2="50%" y2="100%" id="wwwhirl-grad"><stop stop-color="#eee" stop-opacity="1" offset="45%"></stop><stop stop-color="#84fab0" stop-opacity="1" offset="100%"></stop></linearGradient></defs><g stroke-width="1" stroke="url(#wwwhirl-grad)" fill="none" stroke-linecap="round"><path d="M26.000000713348413 524.2604326674154C41.583334522247355 487.6201190492418 69.63333537826546 363.814427770992 100.80000299606331 348.38692730018204C131.9666706138612 332.9594268293721 144.43333766098036 442.70895101199505 175.60000527877824 450.20843040752766C206.76667289657615 457.7079098030603 219.23333994369528 378.5991157221848 250.40000756149323 384.3844283987386C281.56667517929105 390.1697410752923 294.03334222641024 487.6201190492418 325.2000098442081 477.9779312549856C356.366677462006 468.33574346072936 368.8333445091251 336.8163019470745 400.00001212692297 338.10192698630874C431.1666797447209 339.38755202554285 443.63334679184004 497.0051818356512 474.8000144096379 484.14893144330955C505.9666820274358 471.29268105096793 518.4333490745548 288.3910921359211 549.6000166923529 276.3919251030689C580.7666843101508 264.3927580702167 593.2333513572698 421.83897120842715 624.4000189750678 426.5529296856191C655.5666865928657 431.26688816281103 668.0333536399849 284.4485086822697 699.2000212577827 299.01892579359014C730.3666888755807 313.5893429049107 758.4166897315987 455.3509305644643 774.0000235404978 496.4909318199575 " transform="rotate(0, 400, 400)"></path><path d="M72.75000062417986 508.72788621338304C86.38541770696644 476.6676117974811 110.92916845598228 368.3376319290125 138.20000262155543 354.83856901705377C165.47083678712855 341.3395061050951 176.3791704533578 437.3703397648902 203.65000461893095 443.9323842359812C230.92083878450413 450.4944287070723 241.82917245073338 381.27423388630626 269.1000066163066 386.3363824782908C296.3708407818797 391.3985310702753 307.27917444810896 476.6676117974811 334.5500086136821 468.2306974775069C361.82084277925526 459.79378315753274 372.7291764454844 344.71427183308475 400.00001061105763 345.83919374241464C427.2708447766308 346.9641156517445 438.17917844286006 484.8795417355893 465.45001260843316 473.63032264229037C492.72084677400636 462.38110354899146 503.6291804402356 302.3422132483255 530.9000146058088 291.8429420945798C558.170848771382 281.34367094083416 569.079182437611 419.1091074367683 596.3500166031844 423.23382110431123C623.6208507687576 427.3585347718542 634.5291844349866 298.8924527263805 661.8000186005598 311.64156769878593C689.070852766133 324.39068267119137 713.6146035151489 448.4320718733008 727.2500205979354 484.4295729718574 " transform="rotate(0, 400, 400)"></path><path d="M119.50000053501131 493.1953245005616C131.18750089168552 465.7150892869314 152.2250015336991 372.86082082824396 175.6000022470475 361.2901954751365C198.9750029603959 349.71957012202904 208.32500324573527 432.0317132589963 231.7000039590837 437.6563228056458C255.0750046724321 443.2809323522953 264.4250049577715 383.94933679163864 287.8000056711199 388.2883212990539C311.1750063844683 392.6273058064692 320.5250066698077 465.7150892869314 343.9000073831561 458.4834484412392C367.2750080965045 451.251807595547 376.6250083818438 352.6122264603059 400.00000909519224 353.5764452397315C423.37500980854065 354.54066401915713 432.72501009388003 472.7538863767384 456.10001080722844 463.1116985824822C479.4750115205769 453.469510788226 488.8250118059162 316.2933191019408 512.2000125192646 307.2939438273017C535.5750132326132 298.29456855266255 544.9250135179524 416.3792284063204 568.3000142313008 419.91469726421434C591.6750149446493 423.45016612210827 601.0250152299886 313.33638151170226 624.400015943337 324.26419434519266C647.7750166566856 335.192007178683 668.812517298699 441.51319792334823 680.5000176553732 472.3681988649681 " transform="rotate(0, 400, 400)"></path><path d="M166.2499851870537 477.66277041713465C175.98956881761552 454.76257440577615 193.52081935262686 377.38401735687 212.99998661375054 367.74182956261376C232.47915387487419 358.0996417683575 240.27082077932366 426.6930943824969 259.7499880404473 431.3802690047048C279.22915530157104 436.0674436269127 287.0208222060205 386.6244473263655 306.4999894671442 390.2402677492116C325.97915672826787 393.8560881720577 333.77082363271734 454.76257440577615 353.249990893841 448.736207034366C372.7291581549647 442.70983966295586 380.52082505941416 360.51018871692156 399.9999923205378 361.31370436644295C419.4791595816615 362.11722001596434 427.27082648611093 460.62823864728205 446.7499937472346 452.59308215206846C466.22916100835835 444.557925656855 474.02082791280776 330.2444325849507 493.4999951739315 322.7449531894181C512.9791624350552 315.2454737938855 520.7708293395046 413.64935700526695 540.2499966006283 416.5955810535119C559.7291638617521 419.5418051017569 567.5208307662015 327.78031792641855 586.9999980273251 336.88682862099387C606.4791652884489 345.9933393155692 624.0104158234601 434.5943316027902 633.7499994540219 460.3068323874735 " transform="rotate(0, 400, 400)"></path><path d="M212.99998509788514 462.1302163337077C220.79165200233462 443.8100595246209 234.81665243034365 381.907213885496 250.3999862392426 374.193463650091C265.98332004814154 366.47971341468605 272.2166535717011 421.3544755059975 287.79998738060004 425.10421520376383C303.38332118949904 428.8539549015302 309.61665471305855 389.2995578610924 325.19998852195755 392.1922141993693C340.78332233085644 395.08487053764617 347.01665585441606 443.8100595246209 362.599989663315 438.9889656274928C378.18332347221394 434.1678717303647 384.41665699577345 368.40815097353726 399.9999908046724 369.05096349315437C415.5833246135714 369.6937760127714 421.81665813713096 448.5025909178256 437.3999919460299 442.07446572165475C452.98332575492884 435.646340525484 459.21665927848835 344.19554606796055 474.7999930873874 338.1959625515344C490.38332689628635 332.19637903510835 496.61666041984586 410.9194856042136 512.1999942287448 413.27646484280956C527.7833280376437 415.6334440814055 534.0166615612034 342.22425434113484 549.5999953701023 349.50946289679507C565.1833291790012 356.79467145245536 579.2083296070102 427.67546528223215 586.9999965114598 448.24546590997875 " transform="rotate(0, 400, 400)"></path><path d="M259.7499850087166 446.5976622502808C265.5937351870537 432.8575446434657 276.1124855080605 386.430410414122 287.7999858647347 380.6450977375682C299.48748622140886 374.8597850610145 304.1624863640786 416.01585662949816 315.8499867207528 418.8281614028229C327.537487077427 421.64046617614764 332.2124872200967 391.9746683958193 343.89998757677085 394.14416064952695C355.5874879334451 396.3136529032346 360.2624880761148 432.8575446434657 371.949988432789 429.24172422061963C383.6374887894632 425.6259037977735 388.31248893213285 376.30611323015296 399.99998928880706 376.7882226198658C411.68748964548126 377.27033200957857 416.3624897881509 436.3769431883692 428.0499901448252 431.5558492912411C439.7374905014994 426.734755394113 444.412490644169 358.1466595509704 456.09999100084326 353.6469719136509C467.7874913575175 349.1472842763313 472.4624915001871 408.1896142031602 484.14999185686133 409.95734863210714C495.8374922135356 411.72508306105414 500.51249235620526 356.6681907558511 512.1999927128795 362.13209717259633C523.8874930695538 367.59600358934154 534.4062433905605 420.7565989616741 540.2499935688975 436.18409943248406 " transform="rotate(0, 400, 400)"></path><path d="M306.50000017833713 431.06510816685386C310.3958336305618 421.90502976231045 317.40833384456636 390.953606942748 325.2000007490158 387.0967318250455C332.9916676534653 383.23985670734305 336.10833441524505 410.67723775299874 343.9000013196945 412.5521076018819C351.69166822414405 414.4269774507651 354.8083349859238 394.6497789305462 362.6000018903733 396.0961070996847C370.39166879482275 397.54243526882306 373.50833555660256 421.90502976231045 381.30000246105203 419.4944828137464C389.0916693655015 417.08393586518235 392.20833612728126 384.2040754867686 400.0000030317307 384.52548174657716C407.79166993618026 384.8468880063857 410.90833669796 424.2512954589128 418.7000036024095 421.0372328608274C426.49167050685895 417.823170262742 429.6083372686387 372.0977730339803 437.40000417308823 369.0979812757672C445.1916710775377 366.09818951755415 448.30833783931746 405.4597428021068 456.10000474376693 406.6382324214048C463.8916716482164 407.81672204070276 467.0083384099962 371.1121271705674 474.8000053144457 374.75473144839754C482.59167221889516 378.39733572622765 489.60417243289965 413.8377326411161 493.50000588512444 424.1227329549894 " transform="rotate(0, 400, 400)"></path><path d="M353.2499962744713 415.53255408342693C355.19791300058364 410.95251488115525 358.70416310758594 395.476803471374 362.5999965598106 393.54836591252274C366.4958300120354 391.6199283536715 368.05416339292526 405.33861887649937 371.94999684515 406.276053800941C375.84583029737473 407.21348872538255 377.40416367826464 397.3248894652731 381.2999971304894 398.04805354984234C385.1958305827141 398.7712176344115 386.754163963604 410.95251488115525 390.64999741582875 409.7472414068732C394.5458308680535 408.5419679325912 396.10416424894333 392.1020377433843 399.9999977011681 392.2627408732886C403.89583115339286 392.42344400319286 405.45416453428277 412.12564772945643 409.34999798650745 410.51861643041366C413.24583143873224 408.911585131371 414.8041648196221 386.04888651699014 418.6999982718469 384.5489906378836C422.59583172407156 383.0490947587771 424.15416510496146 402.7298714010534 428.0499985571862 403.3191162107024C431.94583200941094 403.9083610203514 433.50416539030084 385.5560635852837 437.3999988425256 387.37736572419874C441.2958322947503 389.1986678631138 444.80208240175256 406.91886632055804 446.74999912786495 412.0613664774947 " transform="rotate(0, 400, 400)"></path></g></svg>