<svg xmlns="http://www.w3.org/2000/svg" version="1.1" xmlns:xlink="http://www.w3.org/1999/xlink" xmlns:svgjs="http://svgjs.dev/svgjs" viewBox="0 0 800 800" opacity="0.95"><defs><linearGradient x1="50%" y1="0%" x2="50%" y2="100%" id="wwwhirl-grad"><stop stop-color="#eee" stop-opacity="1" offset="45%"></stop><stop stop-color="#84fab0" stop-opacity="1" offset="100%"></stop></linearGradient></defs><g stroke-width="2" stroke="url(#wwwhirl-grad)" fill="none" stroke-linecap="round"><path d="M-26.250003564357613 471.9296843478385C-26.250003564357613 471.9296843478385 80.31250050067933 326.871475689307 80.31250050067933 326.871475689307C80.31250050067933 326.871475689307 186.87500456571627 420.38007300637685 186.87500456571627 420.38007300637685C186.87500456571627 420.38007300637685 293.43750863075314 371.2281180063786 293.43750863075314 371.2281180063786C293.43750863075314 371.2281180063786 400.00001269579 535.4675773966168 400.00001269579 535.4675773966168C400.00001269579 535.4675773966168 506.56251676082695 234.56170654296875 506.56251676082695 234.56170654296875C506.56251676082695 234.56170654296875 613.1250208258639 547.4558591039333 613.1250208258639 547.4558591039333C613.1250208258639 547.4558591039333 719.6875248909009 335.26327288442866 719.6875248909009 335.26327288442866C719.6875248909009 335.26327288442866 826.2500289559379 565.4382816649083 826.2500289559379 565.4382816649083 " transform="rotate(8.25, 400, 400)"></path><path d="M12.500003695488118 465.3906332316998C12.500003695488118 465.3906332316998 109.37500739097624 333.5195344512166 109.37500739097624 333.5195344512166C109.37500739097624 333.5195344512166 206.25001108646427 418.52735019400734 206.25001108646427 418.52735019400734C206.25001108646427 418.52735019400734 303.1250147819524 373.8437547394635 303.1250147819524 373.8437547394635C303.1250147819524 373.8437547394635 400.00001847744056 523.1523541851345 400.00001847744056 523.1523541851345C400.00001847744056 523.1523541851345 496.87502217292854 249.6015625 496.87502217292854 249.6015625C496.87502217292854 249.6015625 593.7500258684167 534.050792100877 593.7500258684167 534.050792100877C593.7500258684167 534.050792100877 690.6250295639048 341.14844099223626 690.6250295639048 341.14844099223626C690.6250295639048 341.14844099223626 787.500033259393 550.3984489744905 787.500033259393 550.3984489744905 " transform="rotate(7.5, 400, 400)"></path><path d="M51.2500033259393 458.851566856772C51.2500033259393 458.851566856772 138.4375066518786 340.1675779543371 138.4375066518786 340.1675779543371C138.4375066518786 340.1675779543371 225.62500997781785 416.6746121228489 225.62500997781785 416.6746121228489C225.62500997781785 416.6746121228489 312.8125133037572 376.45937621375936 312.8125133037572 376.45937621375936C312.8125133037572 376.45937621375936 400.0000166296965 510.83711571486333 400.0000166296965 510.83711571486333C400.0000166296965 510.83711571486333 487.1875199556357 264.6414031982422 487.1875199556357 264.6414031982422C487.1875199556357 264.6414031982422 574.3750232815751 520.6457098390315 574.3750232815751 520.6457098390315C574.3750232815751 520.6457098390315 661.5625266075144 347.03359384125486 661.5625266075144 347.03359384125486C661.5625266075144 347.03359384125486 748.7500299334538 535.3586010252837 748.7500299334538 535.3586010252837 " transform="rotate(6.75, 400, 400)"></path><path d="M90.00000295639049 452.3125004818442C90.00000295639049 452.3125004818442 167.50000591278098 346.81562145745767 167.50000591278098 346.81562145745767C167.50000591278098 346.81562145745767 245.00000886917147 414.8218740516903 245.00000886917147 414.8218740516903C245.00000886917147 414.8218740516903 322.50001182556196 379.0749976880552 322.50001182556196 379.0749976880552C322.50001182556196 379.0749976880552 400.0000147819525 498.521877244592 400.0000147819525 498.521877244592C400.0000147819525 498.521877244592 477.50001773834293 279.6812438964844 477.50001773834293 279.6812438964844C477.50001773834293 279.6812438964844 555.0000206947334 507.24062757718593 555.0000206947334 507.24062757718593C555.0000206947334 507.24062757718593 632.5000236511239 352.9187466902734 632.5000236511239 352.9187466902734C632.5000236511239 352.9187466902734 710.0000266075144 520.3187530760769 710.0000266075144 520.3187530760769 " transform="rotate(6, 400, 400)"></path><path d="M128.75000258684167 445.7734341069164C128.75000258684167 445.7734341069164 196.56250517368335 353.46366496057817 196.56250517368335 353.46366496057817C196.56250517368335 353.46366496057817 264.375007760525 412.96913598053175 264.375007760525 412.96913598053175C264.375007760525 412.96913598053175 332.1875103473667 381.690619162351 332.1875103473667 381.690619162351C332.1875103473667 381.690619162351 400.0000129342084 486.2066387743207 400.0000129342084 486.2066387743207C400.0000129342084 486.2066387743207 467.81251552105005 294.72108459472656 467.81251552105005 294.72108459472656C467.81251552105005 294.72108459472656 535.6250181078917 493.8355453153405 535.6250181078917 493.8355453153405C535.6250181078917 493.8355453153405 603.4375206947334 358.80389953929193 603.4375206947334 358.80389953929193C603.4375206947334 358.80389953929193 671.2500232815752 505.27890512687 671.2500232815752 505.27890512687 " transform="rotate(5.25, 400, 400)"></path><path d="M167.49998695850383 439.2343753613832C167.49998695850383 439.2343753613832 225.62498917579669 360.11171609309326 225.62498917579669 360.11171609309326C225.62498917579669 360.11171609309326 283.74999139308954 411.1164055387677 283.74999139308954 411.1164055387677C283.74999139308954 411.1164055387677 341.8749936103824 384.3062482660414 341.8749936103824 384.3062482660414C341.8749936103824 384.3062482660414 399.9999958276753 473.89140793344404 399.9999958276753 473.89140793344404C399.9999958276753 473.89140793344404 458.1249980449681 309.7609329223633 458.1249980449681 309.7609329223633C458.1249980449681 309.7609329223633 516.250000262261 480.43047068288945 516.250000262261 480.43047068288945C516.250000262261 480.43047068288945 574.3750024795538 364.68906001770506 574.3750024795538 364.68906001770506C574.3750024795538 364.68906001770506 632.5000046968468 490.2390648070576 632.5000046968468 490.2390648070576 " transform="rotate(4.5, 400, 400)"></path><path d="M206.24998658895498 432.6953166158499C206.24998658895498 432.6953166158499 254.68748843669906 366.7597672256083 254.68748843669906 366.7597672256083C254.68748843669906 366.7597672256083 303.1249902844431 409.26367509700367 303.1249902844431 409.26367509700367C303.1249902844431 409.26367509700367 351.5624921321871 386.92187736973176 351.5624921321871 386.92187736973176C351.5624921321871 386.92187736973176 399.9999939799312 461.57617709256726 399.9999939799312 461.57617709256726C399.9999939799312 461.57617709256726 448.4374958276752 324.80078125 448.4374958276752 324.80078125C448.4374958276752 324.80078125 496.8749976754193 467.0253960504385 496.8749976754193 467.0253960504385C496.8749976754193 467.0253960504385 545.3124995231633 370.57422049611813 545.3124995231633 370.57422049611813C545.3124995231633 370.57422049611813 593.7500013709075 475.19922448724526 593.7500013709075 475.19922448724526 " transform="rotate(3.75, 400, 400)"></path><path d="M245.00000147819526 426.1562502409221C245.00000147819526 426.1562502409221 283.7500029563905 373.4078107287288 283.7500029563905 373.4078107287288C283.7500029563905 373.4078107287288 322.5000044345857 407.41093702584516 322.5000044345857 407.41093702584516C322.5000044345857 407.41093702584516 361.250005912781 389.5374988440276 361.250005912781 389.5374988440276C361.250005912781 389.5374988440276 400.00000739097624 449.260938622296 400.00000739097624 449.260938622296C400.00000739097624 449.260938622296 438.75000886917144 339.8406219482422 438.75000886917144 339.8406219482422C438.75000886917144 339.8406219482422 477.5000103473667 453.62031378859297 477.5000103473667 453.62031378859297C477.5000103473667 453.62031378859297 516.250011825562 376.45937334513667 516.250011825562 376.45937334513667C516.250011825562 376.45937334513667 555.0000133037572 460.15937653803843 555.0000133037572 460.15937653803843 " transform="rotate(3, 400, 400)"></path><path d="M283.7500011086464 419.6171762365998C283.7500011086464 419.6171762365998 312.8125022172929 380.05584660245484 312.8125022172929 380.05584660245484C312.8125022172929 380.05584660245484 341.8750033259393 405.55819132529206 341.8750033259393 405.55819132529206C341.8750033259393 405.55819132529206 370.9375044345857 392.1531126889289 370.9375044345857 392.1531126889289C370.9375044345857 392.1531126889289 400.0000055432322 436.9456925226302 400.0000055432322 436.9456925226302C400.0000055432322 436.9456925226302 429.0625066518786 354.88045501708984 429.0625066518786 354.88045501708984C429.0625066518786 354.88045501708984 458.125007760525 440.2152238973529 458.125007760525 440.2152238973529C458.125007760525 440.2152238973529 487.18750886917144 382.34451856476073 487.18750886917144 382.34451856476073C487.18750886917144 382.34451856476073 516.2500099778179 445.119520959437 516.2500099778179 445.119520959437 " transform="rotate(2.25, 400, 400)"></path><path d="M322.50000073909763 413.07812512046104C322.50000073909763 413.07812512046104 341.87500147819526 386.7039053643644 341.87500147819526 386.7039053643644C341.87500147819526 386.7039053643644 361.25000221729283 403.7054685129226 361.25000221729283 403.7054685129226C361.25000221729283 403.7054685129226 380.6250029563905 394.7687494220138 380.6250029563905 394.7687494220138C380.6250029563905 394.7687494220138 400.0000036954881 424.630469311148 400.0000036954881 424.630469311148C400.0000036954881 424.630469311148 419.3750044345857 369.9203109741211 419.3750044345857 369.9203109741211C419.3750044345857 369.9203109741211 438.75000517368335 426.8101568942965 438.75000517368335 426.8101568942965C438.75000517368335 426.8101568942965 458.125005912781 388.22968667256833 458.125005912781 388.22968667256833C458.125005912781 388.22968667256833 477.5000066518786 430.07968826901924 477.5000066518786 430.07968826901924 " transform="rotate(1.5, 400, 400)"></path><path d="M361.25000036954884 406.5390625602305C361.25000036954884 406.5390625602305 370.93750073909763 393.3519526821822 370.93750073909763 393.3519526821822C370.93750073909763 393.3519526821822 380.6250011086464 401.8527342564613 380.6250011086464 401.8527342564613C380.6250011086464 401.8527342564613 390.31250147819526 397.3843747110069 390.31250147819526 397.3843747110069C390.31250147819526 397.3843747110069 400.00000184774404 412.315234655574 400.00000184774404 412.315234655574C400.00000184774404 412.315234655574 409.68750221729283 384.96015548706055 409.68750221729283 384.96015548706055C409.68750221729283 384.96015548706055 419.3750025868417 413.40507844714824 419.3750025868417 413.40507844714824C419.3750025868417 413.40507844714824 429.0625029563905 394.11484333628414 429.0625029563905 394.11484333628414C429.0625029563905 394.11484333628414 438.7500033259393 415.0398441345096 438.7500033259393 415.0398441345096 " transform="rotate(0.75, 400, 400)"></path></g></svg>